<svg id="SvgjsSvg21087" width="68" height="85" xmlns="http://www.w3.org/2000/svg" version="1.1" xmlns:xlink="http://www.w3.org/1999/xlink" xmlns:svgjs="http://svgjs.com/svgjs" viewBox="791.3289794921875 946.285400390625 68.0919189453125 84.7275390625"><defs id="SvgjsDefs21088"></defs><defs>
<linearGradient id="linear-gradient" x1="-1.206" y1="-14.618" x2="-1.206" y2="-13.619" gradientUnits="objectBoundingBox">
      <stop offset="0" stop-color="#fd5900"></stop>
      <stop offset="1" stop-color="#ffde00"></stop>
    </linearGradient>


<linearGradient id="linear-gradient-2" x1="-1.433" y1="-14.738" x2="-1.433" y2="-13.738" gradientUnits="objectBoundingBox">
      <stop offset="0" stop-color="#ffe59a"></stop>
      <stop offset="1" stop-color="#ffffd5"></stop>
    </linearGradient></defs>

<g id="Group_2190" data-name="Group 2190">
            <path id="Path_5449" data-name="Path 5449" d="M857.574,981.965a2.015,2.015,0,0,1,0-1.885l1.043-1.97a7.023,7.023,0,0,0-2.029-8.886l-1.793-1.322a2.01,2.01,0,0,1-.818-1.7l.083-2.228a7.024,7.024,0,0,0-5.681-7.126l-2.192-.413a2.016,2.016,0,0,1-1.474-1.176l-.889-2.044a7.025,7.025,0,0,0-8.213-3.954l-2.152.578a2.011,2.011,0,0,1-1.838-.42l-1.689-1.455a7.025,7.025,0,0,0-9.114,0l-1.689,1.455a2.012,2.012,0,0,1-1.838.42l-2.152-.578a7.025,7.025,0,0,0-8.213,3.954l-.891,2.044a2.011,2.011,0,0,1-1.473,1.176l-2.191.413a7.025,7.025,0,0,0-5.682,7.126l.084,2.228a2.015,2.015,0,0,1-.818,1.7l-1.8,1.322a7.025,7.025,0,0,0-2.027,8.886l1.043,1.97a2.015,2.015,0,0,1,0,1.885l-1.043,1.971a7.026,7.026,0,0,0,2.027,8.886l1.8,1.322a2.013,2.013,0,0,1,.818,1.7l-.084,2.228a7.026,7.026,0,0,0,5.682,7.126l1.148.217.17,5.3,12.25,6.225,5.313-2.521a7.033,7.033,0,0,0,8.189.042l4.375,2.975,12.25-6.249,1.092-5.764,1.221-.23a7.025,7.025,0,0,0,5.681-7.126l-.083-2.228a2.013,2.013,0,0,1,.818-1.7l1.8-1.322a7.025,7.025,0,0,0,2.027-8.886Z" fill="url(#linear-gradient)"></path>
            <g id="Group_2189" data-name="Group 2189">
              <g id="Group_2188" data-name="Group 2188">
                <path id="Path_5450" data-name="Path 5450" d="M847.721,981.023a22.347,22.347,0,1,0-22.346,22.347,22.373,22.373,0,0,0,22.346-22.347Zm-11.166-1.291-3.789,3.692.894,5.214a2.482,2.482,0,0,1-3.6,2.617l-4.682-2.461-4.684,2.461a2.481,2.481,0,0,1-3.6-2.617l.894-5.214-3.789-3.692a2.482,2.482,0,0,1,1.377-4.235l5.235-.761,2.341-4.744a2.484,2.484,0,0,1,4.454,0l2.339,4.744,5.237.761a2.483,2.483,0,0,1,1.377,4.235Zm-17.426,32.892a2.017,2.017,0,0,0-1.838-.419l-2.154.578a7.024,7.024,0,0,1-8.211-3.954l-.891-2.044a2.008,2.008,0,0,0-1.475-1.176l-1.041-.2-7.914,14.3a2.484,2.484,0,0,0,2.332,3.681l7.268-.469,3.24,6.688a2.488,2.488,0,0,0,2.172,1.4h.065a2.481,2.481,0,0,0,2.175-1.288l8.4-15.3c-.149-.108-.293-.222-.434-.343Zm35.935,7.089-7.906-14.287-.971.183a2.014,2.014,0,0,0-1.474,1.176l-.889,2.044a7.037,7.037,0,0,1-6.428,4.19,6.89,6.89,0,0,1-1.785-.236l-2.152-.578a2.016,2.016,0,0,0-1.838.419l-1.689,1.456q-.238.2-.491.384l8.371,15.261a2.484,2.484,0,0,0,2.176,1.288h.065a2.485,2.485,0,0,0,2.172-1.4l3.24-6.688,7.267.469a2.484,2.484,0,0,0,2.332-3.681Z" fill="url(#linear-gradient-2)"></path>
              </g>
            </g>
          </g></svg>