<svg id="SvgjsSvg20426" width="78" height="84" xmlns="http://www.w3.org/2000/svg" version="1.1" xmlns:xlink="http://www.w3.org/1999/xlink" xmlns:svgjs="http://svgjs.com/svgjs" viewBox="460.74700927734375 945.771484375 78.30596923828125 84.1624755859375"><defs id="SvgjsDefs20427"></defs>
<g id="Group_2186" data-name="Group 2186">
            <path id="Path_5407" data-name="Path 5407" d="M515.463,1019.208H460.747l2.995-53.627h19.433l2.466,1.3,2.464-1.3h24.133Z" fill="#ff3d58"></path>
            <path id="Path_5408" data-name="Path 5408" d="M515.463,1019.208H488.105V965.581h24.133Z" fill="#d20173"></path>
            <path id="Path_5409" data-name="Path 5409" d="M517.6,987.032a21.451,21.451,0,1,1-21.45,21.45A21.452,21.452,0,0,1,517.6,987.032Z" fill="#97cbff"></path>
            <path id="Path_5410" data-name="Path 5410" d="M539.053,1008.482a21.453,21.453,0,0,1-21.453,21.451v-42.9A21.453,21.453,0,0,1,539.053,1008.482Z" fill="#7f7cff"></path>
            <path id="Path_5411" data-name="Path 5411" d="M528.312,1003.917,517.6,1014.629l-1.9,1.906-8.806-8.807,3.488-3.487,5.318,5.32,1.9-1.906,7.224-7.226Z" fill="#f1f1f1"></path>
            <path id="Path_5412" data-name="Path 5412" d="M528.312,1003.917,517.6,1014.629v-6.974l7.224-7.226Z" fill="#d6d6ea"></path>
            <path id="Path_5413" data-name="Path 5413" d="M502.844,960.51v17.44h-4.932V960.51a9.806,9.806,0,0,0-19.613,0v17.44h-4.932V960.51a14.738,14.738,0,0,1,29.477,0Z" fill="#4e588b"></path>
            <path id="Path_5414" data-name="Path 5414" d="M502.844,960.51v17.44h-4.932V960.51a9.817,9.817,0,0,0-9.807-9.806v-4.931A14.755,14.755,0,0,1,502.844,960.51Z" fill="#293e65"></path>
            <path id="Path_5415" data-name="Path 5415" d="M483.175,965.581h4.93V977.95h-4.93Z" fill="#4e588b"></path>
            <path id="Path_5416" data-name="Path 5416" d="M491,979.867V992.4H480.278V979.867l5.363-3.561h0Z" fill="#fe0"></path>
            <path id="Path_5417" data-name="Path 5417" d="M491,979.867V992.4h-5.362V976.307Z" fill="#fc0"></path>
          </g></svg>