<svg width="66" height="52" xmlns="http://www.w3.org/2000/svg" xmlns:xlink="http://www.w3.org/1999/xlink" xmlns:svgjs="http://svgjs.com/svgjs" viewBox="82.1 1744.365 65.769 51.817"><defs><linearGradient id="a" x1="-3.348" y1="-30.263" x2="-3.348" y2="-32.322" gradientUnits="objectBoundingBox"><stop offset=".005" stop-color="#bcdb1b"/><stop offset="1" stop-color="#fff350"/></linearGradient><linearGradient id="b" x1="1.003" y1=".5" x2="-.003" y2=".5" xlink:href="#a"/><linearGradient id="c" x1="-5.329" y1="-83.651" x2="-5.329" y2="-89.275" gradientUnits="objectBoundingBox"><stop offset="0" stop-color="#2c9400"/><stop offset="1" stop-color="#87b800"/></linearGradient><linearGradient id="d" x1="-4.793" y1="-87.531" x2="-6.095" y2="-87.531" gradientUnits="objectBoundingBox"><stop offset="0" stop-color="#fff350"/><stop offset=".436" stop-color="#bcdb1b"/></linearGradient><linearGradient id="e" x1="0" y1=".5" x2="1" y2=".5" xlink:href="#a"/></defs><g data-name="Group 2166"><g data-name="Group 2161"><g data-name="Group 2160" fill="#bcdb1b"><path data-name="Path 4943" d="M89.985 1780.94h-5.847v-5.812H82.1v14.472h2.034v-6.631h5.847v6.631h2.034v-14.477h-2.034z"/><path data-name="Path 4944" d="M97.852 1779.28a5.166 5.166 0 1 0 0 10.324 5.335 5.335 0 0 0 3.125-.891v.891h2.034v-5.158a5.137 5.137 0 0 0-1.429-3.766 5.065 5.065 0 0 0-3.73-1.4zm3.125 6.447l-.608.779a2.548 2.548 0 0 1-.226.258 3.667 3.667 0 0 1-4.59 0 3.636 3.636 0 0 1 0-4.637 3.134 3.134 0 0 1 5.422 2.319z"/><path data-name="Path 4945" d="M109.2 1779.288a5.066 5.066 0 0 0-3.73 1.4 5.134 5.134 0 0 0-1.427 3.766v9.308h2.033v-5.041a5.335 5.335 0 0 0 3.124.891 5.167 5.167 0 1 0 0-10.326zm-3.124 5.168a3.092 3.092 0 0 1 .837-2.321 3.641 3.641 0 0 1 4.589 0 3.268 3.268 0 0 1-4.593 4.633 2.314 2.314 0 0 1-.224-.256l-.609-.781z"/><path data-name="Path 4946" d="M120.19 1779.288a5.074 5.074 0 0 0-3.731 1.4 5.137 5.137 0 0 0-1.426 3.766v9.308h2.033v-5.041a5.332 5.332 0 0 0 3.124.891 5.167 5.167 0 1 0 0-10.326zm-3.124 5.168a3.1 3.1 0 0 1 .836-2.321 3.642 3.642 0 0 1 4.59 0 3.268 3.268 0 0 1-4.592 4.633 2.318 2.318 0 0 1-.226-.256l-.608-.781z"/><path data-name="Rectangle 338" d="M126.206 1779.28h2.034v10.324h-2.034z"/><path data-name="Rectangle 339" d="M126.206 1775.127h2.034v2.035h-2.034z"/><path data-name="Path 4947" d="M139.283 1783.161a4.707 4.707 0 0 0-1.746-2.87 5.27 5.27 0 0 0-3.281-1.011 5.166 5.166 0 1 0 0 10.324h4.137v-2.033h-4.137a3.08 3.08 0 0 1-2.3-.807 2.687 2.687 0 0 1-.338-.418l7.875-2.262zm-5.027-1.848a3.313 3.313 0 0 1 2.047.592 2.462 2.462 0 0 1 .672.787l-5.852 1.689a2.856 2.856 0 0 1 3.133-3.068z"/><path data-name="Path 4948" d="M146.44 1784.03a8.546 8.546 0 0 0-2.643-.6 6.776 6.776 0 0 1-1.741-.338.719.719 0 0 1-.517-.728.747.747 0 0 1 .407-.666 3.2 3.2 0 0 1 1.742-.387h3.816v-2.033h-3.816a5.159 5.159 0 0 0-2.863.722 2.736 2.736 0 0 0-1.319 2.364 2.606 2.606 0 0 0 1.429 2.488 8.469 8.469 0 0 0 2.63.6 7.274 7.274 0 0 1 1.74.338.726.726 0 0 1 .522.728.739.739 0 0 1-.4.666 3.222 3.222 0 0 1-1.744.389h-4.182v2.033h4.182a5.158 5.158 0 0 0 2.851-.713 2.737 2.737 0 0 0 1.33-2.375 2.6 2.6 0 0 0-1.424-2.488z"/></g><text transform="translate(119.226 1795.182)" fill="#e0d24c" font-size="4.576" font-family="SegoeUI, Segoe UI" svgjs:data="{&quot;leading&quot;:&quot;1.3&quot;}"><tspan x="0" y="0">RECREATION</tspan></text></g><g data-name="Group 2165"><g data-name="Group 2162"><path data-name="Path 4949" d="M1418.8 1755.807c-.009.016-.021.029-.03.045-.5 1.406-.618 2.764-1.761 4.016.079-.082.141-.155.187-.209s.062-.078.079-.1l.028-.035s-.009.014-.026.035-.041.059-.076.1a3.321 3.321 0 0 1-.32.363 3.461 3.461 0 0 1-.356.307c-1.6 1.347-3.878 1.666-5.566 2.9a6.19 6.19 0 0 0-1.592 1.779c-.04.088-.078.174-.113.262a8.55 8.55 0 0 0-.382 1.195c-.093.389-.159.764-.209 1.112-.053.373-.089.714-.114 1.015 2.775-2.506 6.6-.248 9.133-3.748 2.783-3.844 1.118-9.037 1.118-9.037z" fill="url(#a)" transform="translate(-1280)"/><path data-name="Path 4950" d="M1410.336 1759.215l-.133.049-.019.008c-.039.014-.076.031-.114.043a.217.217 0 0 1-.035.016c-.033.013-.066.029-.1.042-.016.008-.034.014-.049.02l-.083.041c-.021.008-.04.018-.061.027l-.069.037c-.024.01-.047.024-.07.036l-.057.031-.082.047c-.014.01-.029.017-.044.027s-.06.035-.089.055l-.034.023-.1.065-.023.017-.1.077-.01.007-.115.092a3.426 3.426 0 0 0-.35.334c-.036.039-.072.08-.107.121l-.029.033-.074.088-.032.041-.067.084-.032.043-.063.082c-.022.027-.02.03-.031.047s-.039.053-.057.082a.51.51 0 0 1-.033.045c-.017.029-.036.057-.054.084l-.03.047c-.017.027-.035.055-.051.084s-.019.031-.029.047l-.05.086-.026.045-.048.089-.024.045-.045.09-.023.043c-.014.033-.03.065-.044.1l-.02.041-.044.1a.289.289 0 0 0-.016.038c-.015.035-.031.07-.044.107 0 .01-.01.02-.014.031l-.045.117-.008.022a4.37 4.37 0 0 0-.049.137 6.981 6.981 0 0 0-.2.728v.016l-.028.131-.005.023c-.007.043-.016.082-.022.123l-.005.029a4.843 4.843 0 0 0-.02.118l-.006.035-.015.113c0 .014 0 .025-.005.037-.005.037-.009.076-.015.113a.236.236 0 0 1 0 .038l-.011.111v.039c0 .037-.007.074-.01.109v.041c0 .037-.005.075-.009.11v.041l-.006.111v.639c0 .1 0 .2.008.306a.293.293 0 0 1 0 .032c0 .039 0 .078.006.117v.058l.006.088c0 .024 0 .047.005.071s0 .05.007.076l.006.08.005.066c0 .03 0 .059.008.086l.006.059c0 .031.006.06.01.093l.006.051c0 .034.007.065.01.1l.005.045.014.1.005.038c.006.037.01.074.015.113v.027l.018.121v.014c.118.8.292 1.562.468 2.262.135-.436.287-.838.411-1.165.067-.175.135-.353.2-.531.058-.308.128-.636.222-.976a9.109 9.109 0 0 1 .438-1.239 7.3 7.3 0 0 1 .692-1.222 7.1 7.1 0 0 1 .953-1.09 5.685 5.685 0 0 1 1.169-.854 6.477 6.477 0 0 1 1.29-.525c.431-.129.854-.223 1.252-.313s.772-.181 1.108-.29a4.62 4.62 0 0 0 .884-.387 3.289 3.289 0 0 0 .6-.44c.053-.048.1-.095.144-.138 1.143-1.252 1.261-2.61 1.761-4.016-2.274 3.158-5.875 2.467-8.449 3.365z" fill="url(#b)" transform="translate(-1280)"/><path data-name="Path 4951" d="M1415.408 1760.915c-.338.125-.711.228-1.1.336s-.813.212-1.23.355a6.2 6.2 0 0 0-1.231.555 5.06 5.06 0 0 0-.569.39c-.045.035-.088.072-.132.11s-.091.078-.131.115c-.086.08-.173.158-.254.242a6.915 6.915 0 0 0-.471.514 7.102 7.102 0 0 0-.41.556 6.808 6.808 0 0 0-.508.924 6.19 6.19 0 0 1 1.592-1.779c1.688-1.236 3.963-1.555 5.566-2.9-.072.052-.15.107-.235.16a4.651 4.651 0 0 1-.887.422z" fill="url(#c)" transform="translate(-1280)"/><path data-name="Path 4952" d="M1415.408 1760.915c-.338.125-.711.228-1.1.336s-.813.212-1.23.355a6.2 6.2 0 0 0-1.231.555 5.06 5.06 0 0 0-.569.39c-.045.035-.088.072-.132.11s-.091.078-.131.115c-.086.08-.173.158-.254.242a6.915 6.915 0 0 0-.471.514 7.102 7.102 0 0 0-.41.556 6.808 6.808 0 0 0-.508.924 6.19 6.19 0 0 1 1.592-1.779c1.688-1.236 3.963-1.555 5.566-2.9-.072.052-.15.107-.235.16a4.651 4.651 0 0 1-.887.422z" fill="url(#d)" transform="translate(-1280)"/></g><g data-name="Group 2163" fill="#bcdb1b" fill-rule="evenodd"><path data-name="Path 4953" d="M104.754 1758.733c2.9.09 4.487-1.807 4.48-4.594a4.059 4.059 0 0 0-4.291-4.383c-2.58.028-4.1 1.723-4.281 4.432.115 2.643 1.416 4.461 4.092 4.545z"/><path data-name="Path 4954" d="M119.164 1745c-2.084 2.965-4.131 5.955-6.187 8.938-.7.822-1.41 1.633-2.088 2.471-5.719 7.06-6.167 7.088-12.707.752-1.185-1.6-2.09-3.5-4.676-4.358 1.436 2.063 2.553 3.664 3.668 5.268 2.5 5.363 5.3 10.609 6.258 17.818 3.1-8.121 6.972-14.41 10.4-20.928l6.919-10.572a1.663 1.663 0 0 0-1.587.611z"/></g><g data-name="Group 2164"><path data-name="Path 4955" d="M1407.745 1768.768a5.951 5.951 0 0 1-1.626 1.922 15.861 15.861 0 0 1-2.668 1.762 16.376 16.376 0 0 1-3.094 1.265 8.748 8.748 0 0 1-2.946.4 2.232 2.232 0 0 1-1.864-.815 2.6 2.6 0 0 1-.436-1.611 4.429 4.429 0 0 1 .11-.756 3.351 3.351 0 0 1 .314-.81q.877-1.776 1.754-3.284a32.892 32.892 0 0 0 1.651-3.254c.127-.285.206-.474.233-.562a1.076 1.076 0 0 0 .048-.234c.015-.291-.146-.448-.483-.467a1.282 1.282 0 0 0-1.293.775l-13.992 12.8L1399 1748.95l5.594.31-5.826 11.238a6.51 6.51 0 0 1 1.483-.542 5.005 5.005 0 0 1 1.325-.114 3.3 3.3 0 0 1 2.142.694 2.073 2.073 0 0 1 .565 1.687 5.645 5.645 0 0 1-.223 1.307 13.339 13.339 0 0 1-.537 1.439c-.232.541-.52 1.154-.863 1.846s-.754 1.508-1.232 2.451q-.118.3-.216.527a1.178 1.178 0 0 0-.1.368c-.018.336.174.515.579.539a2.924 2.924 0 0 0 1.234-.3 10.638 10.638 0 0 0 1.533-.828 10.435 10.435 0 0 0 1.411-1.088 5.919 5.919 0 0 1 1.674-1.086z" fill="url(#e)" transform="translate(-1280)"/></g></g></g></svg>