<svg id="SvgjsSvg21225" width="93" height="92" xmlns="http://www.w3.org/2000/svg" version="1.1" xmlns:xlink="http://www.w3.org/1999/xlink" xmlns:svgjs="http://svgjs.com/svgjs" viewBox="118.843017578125 944.0560302734375 93.29998779296875 91.7236328125"><defs id="SvgjsDefs21226"></defs>
<g id="Flat">
            <path id="Path_5418" data-name="Path 5418" d="M186.05,958.289a5.534,5.534,0,1,1-5.534,5.534A5.534,5.534,0,0,1,186.05,958.289Z" fill="#d5d5d3"></path>
            <path id="Path_5419" data-name="Path 5419" d="M196.328,978.846h-3.162v-4.189l-5.979-7.474,2.469-1.976,6.326,7.907a1.576,1.576,0,0,1,.346.988Z" fill="#d5d5d3"></path>
            <path id="Path_5420" data-name="Path 5420" d="M167.864,958.289,164.7,959.87v1.581a3.163,3.163,0,0,1-3.162,3.163h-9.488V948.8H164.7v4.744l1.054,1.582Z" fill="#fdc8a2"></path>
            <path id="Path_5421" data-name="Path 5421" d="M165.755,955.126h-7.379v-3.163H164.7v1.581Z" fill="#fdb683"></path>
            <path id="Path_5422" data-name="Path 5422" d="M123.586,1008.892h11.07v9.488h-11.07Z" fill="#c7483c"></path>
            <path id="Path_5423" data-name="Path 5423" d="M139.4,1013.636a11.07,11.07,0,1,1-11.07,11.07A11.068,11.068,0,0,1,139.4,1013.636Z" fill="#34507b"></path>
            <path id="Path_5424" data-name="Path 5424" d="M139.4,1019.961a4.744,4.744,0,1,1-4.744,4.745A4.745,4.745,0,0,1,139.4,1019.961Z" fill="#d5d5d3"></path>
            <path id="Path_5425" data-name="Path 5425" d="M123.586,966.2h18.976a3.163,3.163,0,0,1,3.163,3.163V991.5h-25.3V969.358A3.163,3.163,0,0,1,123.586,966.2Z" fill="#d65246"></path>
            <path id="Path_5426" data-name="Path 5426" d="M125.168,977.265h3.162v9.487h-3.162Z" fill="#df6257"></path>
            <path id="Path_5427" data-name="Path 5427" d="M120.424,970.939h25.3V974.1h-25.3Z" fill="#c7483c"></path>
            <path id="Path_5428" data-name="Path 5428" d="M177.16,1020.153l9.872-9.872a4.743,4.743,0,0,0,1.39-3.355V994.66a6.325,6.325,0,0,1,6.325-6.326v7.907a7.907,7.907,0,0,0,7.907,7.907v6.325h-3.527a6.327,6.327,0,0,0-4.681,2.07L182.4,1025.8a6.317,6.317,0,0,1-4.679,2.071H120.424a20.843,20.843,0,0,1,17.114-20.507l.28-.051v-6.325H164.7a5.47,5.47,0,0,1-4.7,5.415,7.422,7.422,0,0,0-6.373,7.348v.372a7.423,7.423,0,0,0,7.423,7.422h12.751a4.746,4.746,0,0,0,3.354-1.389Z" fill="#d65246"></path>
            <path id="Path_5429" data-name="Path 5429" d="M136.293,1015.923,135.08,1013a16.2,16.2,0,0,1,3.307-.973l.565,3.111A13.048,13.048,0,0,0,136.293,1015.923Z" fill="#df6257"></path>
            <path id="Path_5430" data-name="Path 5430" d="M129.619,1022.232l-2.846-1.379a16.136,16.136,0,0,1,5.409-6.279l1.785,2.611a12.969,12.969,0,0,0-4.348,5.047Z" fill="#df6257"></path>
            <path id="Path_5431" data-name="Path 5431" d="M145.725,991.5h-25.3a1.582,1.582,0,0,0-1.582,1.582v1.841a3.165,3.165,0,0,0,2.6,3.114l16.1,2.925a1.423,1.423,0,0,0,.283.026h7.907a1.581,1.581,0,0,0,1.582-1.581v-6.325A1.582,1.582,0,0,0,145.725,991.5Zm-1.581,6.325h-6.183L122,994.92v-.26h22.139Z" fill="#d5d5d3"></path>
            <path id="Path_5432" data-name="Path 5432" d="M166.283,951.963h-7.907v3.755a4.15,4.15,0,0,1-6.325,3.537,4.073,4.073,0,0,1-.612-.459,4.131,4.131,0,0,1-1.343-2.664l-.338-3.383a7.905,7.905,0,0,1,7.077-8.654c.263-.025.526-.039.79-.039h.751A7.908,7.908,0,0,1,166.283,951.963Z" fill="#d65246"></path>
            <path id="Path_5433" data-name="Path 5433" d="M152.051,986.752v3.163a4.744,4.744,0,0,0,4.744,4.745h15.813l-7.907,20.557h7.907l7.433-17.892a7.643,7.643,0,0,0-7.057-10.573Z" fill="#7a432a"></path>
            <path id="Path_5434" data-name="Path 5434" d="M171.027,975.683l-9.488-11.069h-9.488v22.138H164.7v-7.906l1.774,1.774a4.743,4.743,0,0,0,3.354,1.388H185.26v-6.325Z" fill="#d65246"></path>
            <path id="Path_5435" data-name="Path 5435" d="M188.422,988.334h12.65V977.265h-2.789a5.721,5.721,0,0,0-5.117,3.162l-4.744,1.581Z" fill="#d65246"></path>
            <path id="Path_5436" data-name="Path 5436" d="M212.143,1024.706a11.072,11.072,0,1,1-.114-1.583A11.186,11.186,0,0,1,212.143,1024.706Z" fill="#34507b"></path>
            <path id="Path_5437" data-name="Path 5437" d="M212.029,1023.123H199.491l-6.263,9.394a11.07,11.07,0,1,1,18.8-9.394Z" fill="#2f486e"></path>
            <path id="Path_5438" data-name="Path 5438" d="M205.619,1024.706a4.749,4.749,0,1,1-.273-1.583A4.69,4.69,0,0,1,205.619,1024.706Z" fill="#cececc"></path>
            <path id="Path_5439" data-name="Path 5439" d="M205.346,1023.123h-5.855l-2.682,4.023a4.743,4.743,0,1,1,8.537-4.023Z" fill="#c6c6c4"></path>
            <path id="Path_5440" data-name="Path 5440" d="M193.957,1022.165l4.842,4.843a2.935,2.935,0,0,0,4.152,0h0a2.936,2.936,0,0,0,0-4.151h0l-4.844-4.843Z" fill="#d5d5d3"></path>
            <path id="Path_5441" data-name="Path 5441" d="M186.84,1029.45h6.326l6.325-9.489h12.652a9.489,9.489,0,0,0-9.489-9.488h-3.163a12.651,12.651,0,0,0-12.651,12.65Z" fill="#d65246"></path>
            <path id="Path_5442" data-name="Path 5442" d="M185.26,975.683v6.325l3.162,1.582v3.162h6.325v-7.906Z" fill="#fdc8a2"></path>
            <circle id="Ellipse_12" data-name="Ellipse 12" cx="3.163" cy="3.163" r="3.163" transform="translate(185.259 982.009)" fill="#34507b"></circle>
            <g id="Group_2187" data-name="Group 2187">
              <path id="Path_5443" data-name="Path 5443" d="M137.818,1005.729h11.071v3.163H137.818Z" fill="#c7483c"></path>
              <path id="Path_5444" data-name="Path 5444" d="M170.643,1024.706H140.981v-3.164h32.825a4.746,4.746,0,0,0,3.354-1.389l.192-.192L174,1023.316A4.747,4.747,0,0,1,170.643,1024.706Z" fill="#c7483c"></path>
              <path id="Path_5445" data-name="Path 5445" d="M199.491,1008.892a14.251,14.251,0,0,0-14.03,11.86h3.22a11.087,11.087,0,0,1,10.81-8.7h3.163v-3.162Z" fill="#c7483c"></path>
            </g>
            <path id="Path_5446" data-name="Path 5446" d="M148.889,994.66h12.65a3.162,3.162,0,0,1,3.162,3.162h0a3.163,3.163,0,0,1-3.162,3.163h-12.65a3.163,3.163,0,0,1-3.164-3.163h0A3.163,3.163,0,0,1,148.889,994.66Z" fill="#34507b"></path>
            <path id="Path_5447" data-name="Path 5447" d="M164.7,979.118l-5.207-5.207-2.236,2.235,7.443,7.444Z" fill="#c7483c"></path>
            <path id="Path_5448" data-name="Path 5448" d="M164.7,1015.217h9.488a3.163,3.163,0,1,1,0,6.325H164.7v-6.325Z" fill="#d5d5d3"></path>
          </g></svg>