<svg id="SvgjsSvg37913" width="322" height="321" xmlns="http://www.w3.org/2000/svg" version="1.1" xmlns:xlink="http://www.w3.org/1999/xlink" xmlns:svgjs="http://svgjs.com/svgjs" viewBox="85.041015625 1264.842041015625 321.60595703125 321.60595703125"><defs id="SvgjsDefs37914"></defs><defs>
<linearGradient id="linear-gradient-3" x1="-2.117" y1="-0.339" x2="-2.117" y2="-2.398" gradientUnits="objectBoundingBox">
      <stop offset="0.005" stop-color="#bcdb1b"></stop>
      <stop offset="1" stop-color="#fff350"></stop>
    </linearGradient>
<defs>

<linearGradient id="linear-gradient-3" x1="-2.117" y1="-0.339" x2="-2.117" y2="-2.398" gradientUnits="objectBoundingBox">
      <stop offset="0.005" stop-color="#bcdb1b"></stop>
      <stop offset="1" stop-color="#fff350"></stop>
    </linearGradient></defs>

<linearGradient id="linear-gradient-4" x1="1.003" y1="0.5" x2="-0.003" y2="0.5" xlink:href="#linear-gradient-3"></linearGradient>


<linearGradient id="linear-gradient-5" x1="-3.481" y1="-1.892" x2="-3.481" y2="-7.515" gradientUnits="objectBoundingBox">
      <stop offset="0" stop-color="#2c9400"></stop>
      <stop offset="1" stop-color="#87b800"></stop>
    </linearGradient>


<linearGradient id="linear-gradient-6" x1="-2.945" y1="-5.771" x2="-4.247" y2="-5.771" gradientUnits="objectBoundingBox">
      <stop offset="0" stop-color="#fff350"></stop>
      <stop offset="0.436" stop-color="#bcdb1b"></stop>
    </linearGradient>
<defs>

<linearGradient id="linear-gradient-3" x1="-2.117" y1="-0.339" x2="-2.117" y2="-2.398" gradientUnits="objectBoundingBox">
      <stop offset="0.005" stop-color="#bcdb1b"></stop>
      <stop offset="1" stop-color="#fff350"></stop>
    </linearGradient></defs>

<linearGradient id="linear-gradient-7" x1="0" y1="0.5" x2="1" y2="0.5" xlink:href="#linear-gradient-3"></linearGradient></defs>

<g id="Group_2205" data-name="Group 2205">
            <circle id="Ellipse_13" data-name="Ellipse 13" cx="160.803" cy="160.803" r="160.803" transform="translate(85.041 1264.842)" fill="#fff" stroke="#fff200" stroke-miterlimit="10" stroke-width="3"></circle>
            <g id="Group_2204" data-name="Group 2204">
              <g id="Group_2199" data-name="Group 2199">
                <g id="Group_2198" data-name="Group 2198">
                  <path id="Path_5464" data-name="Path 5464" d="M149.483,1448.645H128.42V1427.71h-7.328v52.153h7.328v-23.893h21.064v23.893h7.329V1427.71h-7.329Z" fill="#bcdb1b"></path>
                  <path id="Path_5465" data-name="Path 5465" d="M177.826,1442.665c-5.564,0-10.093,1.7-13.475,5.051-3.412,3.436-5.14,8-5.14,13.562s1.732,10.123,5.152,13.541c3.37,3.346,7.9,5.045,13.463,5.045a19.209,19.209,0,0,0,11.256-3.213v3.213h7.326v-18.586c0-5.563-1.729-10.126-5.145-13.568C187.914,1444.363,183.394,1442.665,177.826,1442.665Zm11.256,23.23-2.188,2.81a9.57,9.57,0,0,1-.816.925c-1.954,1.955-4.653,2.905-8.252,2.905-3.621,0-6.33-.95-8.285-2.905-2.022-2.02-3.005-4.752-3.005-8.352s.983-6.344,3.013-8.356c1.953-1.971,4.662-2.931,8.277-2.931,3.6,0,6.291.96,8.258,2.946,2.018,2,3,4.727,3,8.341Z" fill="#bcdb1b"></path>
                  <path id="Path_5466" data-name="Path 5466" d="M218.705,1442.7c-5.566,0-10.087,1.7-13.441,5.052-3.412,3.434-5.141,8-5.141,13.561v33.533h7.326v-18.161a19.2,19.2,0,0,0,11.256,3.212c5.563,0,10.094-1.7,13.469-5.049,3.416-3.415,5.147-7.968,5.147-13.535s-1.731-10.127-5.151-13.572C228.8,1444.394,224.268,1442.7,218.705,1442.7Zm-11.256,18.613c0-3.617.982-6.344,3.013-8.355,1.952-1.972,4.649-2.93,8.243-2.93,3.616,0,6.323.958,8.291,2.941,2.018,2,3,4.729,3,8.344,0,3.6-.981,6.327-3,8.352-1.955,1.955-4.664,2.9-8.285,2.9-3.6,0-6.3-.947-8.254-2.905a9.587,9.587,0,0,1-.81-.92l-2.192-2.818Z" fill="#bcdb1b"></path>
                  <path id="Path_5467" data-name="Path 5467" d="M258.3,1442.7c-5.567,0-10.086,1.7-13.442,5.052-3.412,3.434-5.14,8-5.14,13.561v33.533h7.326v-18.161A19.191,19.191,0,0,0,258.3,1479.9c5.564,0,10.093-1.7,13.469-5.049,3.415-3.415,5.146-7.968,5.146-13.535s-1.729-10.127-5.15-13.572C268.4,1444.394,263.867,1442.7,258.3,1442.7Zm-11.256,18.613c0-3.617.98-6.344,3.012-8.355,1.953-1.972,4.648-2.93,8.244-2.93,3.616,0,6.323.958,8.291,2.941,2.016,2,3,4.729,3,8.344,0,3.6-.985,6.327-3.005,8.352-1.956,1.955-4.665,2.9-8.284,2.9-3.6,0-6.3-.947-8.254-2.905a10.205,10.205,0,0,1-.813-.92l-2.189-2.818Z" fill="#bcdb1b"></path>
                  <rect id="Rectangle_356" data-name="Rectangle 356" width="7.327" height="37.199" transform="translate(279.975 1442.665)" fill="#bcdb1b"></rect>
                  <rect id="Rectangle_357" data-name="Rectangle 357" width="7.327" height="7.33" transform="translate(279.975 1427.71)" fill="#bcdb1b"></rect>
                  <path id="Path_5468" data-name="Path 5468" d="M327.086,1456.646a16.916,16.916,0,0,0-6.293-10.331,18.964,18.964,0,0,0-11.818-3.65c-5.565,0-10.094,1.7-13.475,5.051-3.41,3.436-5.142,8-5.142,13.562s1.734,10.123,5.154,13.541c3.369,3.346,7.9,5.045,13.463,5.045h14.9v-7.329h-14.9c-3.622,0-6.331-.95-8.286-2.905a9.14,9.14,0,0,1-1.212-1.509l28.367-8.141Zm-18.111-6.655a11.952,11.952,0,0,1,7.373,2.131,8.922,8.922,0,0,1,2.422,2.838l-21.083,6.083c.043-3.5,1.024-6.156,3.01-8.121C302.65,1450.951,305.357,1449.991,308.975,1449.991Z" fill="#bcdb1b"></path>
                  <path id="Path_5469" data-name="Path 5469" d="M352.867,1459.781c-1.842-.933-4.953-1.636-9.517-2.153a24.421,24.421,0,0,1-6.276-1.219,2.589,2.589,0,0,1-1.862-2.622,2.691,2.691,0,0,1,1.467-2.4,11.513,11.513,0,0,1,6.274-1.394H356.7v-7.326H342.953a18.55,18.55,0,0,0-10.312,2.607,9.852,9.852,0,0,0-4.754,8.515c0,4.149,1.779,7.246,5.15,8.96,1.841.932,4.942,1.636,9.473,2.149a26.27,26.27,0,0,1,6.268,1.217,2.617,2.617,0,0,1,1.882,2.628,2.654,2.654,0,0,1-1.424,2.394,11.588,11.588,0,0,1-6.283,1.4H327.887v7.329h15.066c4.206,0,7.663-.868,10.272-2.574a9.857,9.857,0,0,0,4.792-8.549C358.017,1464.592,356.236,1461.495,352.867,1459.781Z" fill="#bcdb1b"></path>
                </g>
                <text id="RECREATION" transform="translate(254.825 1499.955)" fill="#e0d24c" font-size="16.484" font-family="SegoeUI, Segoe UI" svgjs:data="{&quot;leading&quot;:&quot;1.3&quot;}"><tspan x="0" y="0">RECREATION</tspan></text>
              </g>
              <g id="Group_2203" data-name="Group 2203">
                <g id="Group_2200" data-name="Group 2200">
                  <path id="Path_5470" data-name="Path 5470" d="M325.346,1358.106c-.036.054-.077.105-.114.156-1.8,5.072-2.218,9.964-6.341,14.469.287-.294.509-.552.675-.755.132-.15.224-.275.287-.356l.1-.124s-.03.044-.09.127-.15.211-.273.367a12.281,12.281,0,0,1-1.154,1.308,12.042,12.042,0,0,1-1.284,1.1c-5.777,4.853-13.97,6-20.054,10.453a22.344,22.344,0,0,0-5.734,6.414c-.142.314-.28.627-.4.942a30.492,30.492,0,0,0-1.377,4.3c-.335,1.4-.575,2.752-.754,4.005-.189,1.342-.318,2.576-.411,3.658,10-9.024,23.784-.89,32.9-13.5C331.34,1376.818,325.346,1358.106,325.346,1358.106Z" fill="url(#linear-gradient-3)"></path>
                  <path id="Path_5471" data-name="Path 5471" d="M294.85,1370.382l-.013,0c-.159.054-.318.114-.476.173-.023.011-.046.018-.07.028-.139.052-.274.11-.412.161-.041.018-.084.036-.126.052-.118.049-.235.1-.352.153l-.175.075c-.1.045-.2.095-.3.143-.073.032-.146.067-.218.1l-.248.131c-.086.042-.172.087-.258.132-.066.035-.134.077-.2.112-.1.057-.2.108-.292.165-.054.035-.106.066-.159.1-.109.061-.218.128-.324.2-.04.024-.081.052-.12.079-.119.078-.238.156-.351.236-.031.02-.059.042-.088.063-.125.089-.252.179-.374.274l-.033.029q-.211.159-.414.33l-.006,0a12.976,12.976,0,0,0-1.261,1.206c-.131.143-.26.287-.386.434l-.1.123c-.089.1-.18.211-.267.317-.04.049-.078.1-.119.149-.079.1-.159.2-.237.3l-.119.16q-.112.148-.219.294c-.039.056-.078.108-.117.166-.071.1-.139.194-.207.294l-.114.167c-.066.1-.131.2-.2.3l-.106.17c-.064.1-.126.2-.188.3-.034.054-.067.111-.1.168-.062.1-.122.207-.181.308-.029.057-.064.112-.093.167-.06.107-.117.213-.174.319l-.088.163c-.055.11-.109.219-.165.327l-.078.157c-.055.112-.11.226-.164.342-.022.049-.046.1-.069.147-.054.119-.108.24-.158.36a1.411,1.411,0,0,0-.058.133c-.057.127-.108.254-.161.385-.015.038-.032.074-.047.111-.055.144-.107.283-.162.425-.01.026-.021.05-.029.077-.061.163-.118.326-.174.49l-.006.015a23.844,23.844,0,0,0-.733,2.629c0,.019-.007.034-.009.053-.037.157-.07.314-.1.475-.005.028-.011.055-.016.083-.028.15-.057.3-.082.445-.008.034-.013.071-.018.107-.025.141-.05.281-.07.422-.006.041-.012.082-.02.124-.02.137-.041.273-.059.409-.005.046-.01.087-.017.133-.017.135-.034.27-.051.4,0,.044-.012.093-.015.14-.017.132-.029.265-.043.4,0,.05-.009.1-.014.145-.013.13-.025.264-.035.395l-.012.146c-.01.134-.02.266-.028.4,0,.048-.005.1-.009.148-.008.131-.016.266-.021.4,0,.047-.005.093-.006.142-.009.135-.012.272-.016.409,0,.041,0,.087-.006.132,0,.141-.008.283-.008.424,0,.038,0,.078,0,.115,0,.153,0,.3,0,.452,0,.03,0,.062,0,.094,0,.167,0,.337.005.506v.035c0,.363.017.73.032,1.093,0,.036.005.077.006.113.007.14.012.28.02.421.005.068.009.141.014.212.005.108.011.214.019.318.007.085.013.172.02.256s.013.18.021.271.015.2.024.291.012.158.019.238c.008.1.02.209.029.312.008.07.014.142.023.21.009.111.021.222.033.334.008.063.015.123.021.185.014.119.027.235.04.354.008.055.014.108.02.165.016.122.031.25.048.372.005.045.011.09.017.133.018.135.035.27.054.4.005.033.01.064.014.1.02.145.043.292.062.437,0,.017.006.033.01.053.428,2.867,1.052,5.632,1.686,8.148.488-1.569,1.037-3.021,1.482-4.191q.358-.953.735-1.914c.209-1.113.466-2.292.8-3.519a31.87,31.87,0,0,1,1.58-4.459,26.13,26.13,0,0,1,2.491-4.408c.5-.7,1.039-1.389,1.615-2.046s1.179-1.286,1.824-1.877a20.111,20.111,0,0,1,4.2-3.08,23.64,23.64,0,0,1,4.65-1.893c1.554-.464,3.077-.8,4.51-1.126s2.782-.651,3.995-1.048a16.69,16.69,0,0,0,3.183-1.389,12.308,12.308,0,0,0,2.167-1.584c.192-.178.364-.344.519-.5,4.123-4.505,4.544-9.4,6.341-14.469C317.1,1369.634,304.129,1367.148,294.85,1370.382Z" fill="url(#linear-gradient-4)"></path>
                  <path id="Path_5472" data-name="Path 5472" d="M313.126,1376.506c-1.214.447-2.562.825-3.985,1.207s-2.924.769-4.428,1.279a22.943,22.943,0,0,0-4.438,2,18.174,18.174,0,0,0-2.047,1.413c-.164.127-.32.261-.478.39s-.327.284-.473.419c-.3.288-.623.565-.914.869a25.076,25.076,0,0,0-1.7,1.853c-.528.646-1.02,1.317-1.477,2a24.65,24.65,0,0,0-1.831,3.331,22.344,22.344,0,0,1,5.734-6.414c6.084-4.451,14.277-5.6,20.054-10.453-.259.193-.54.388-.845.579A16.729,16.729,0,0,1,313.126,1376.506Z" fill="url(#linear-gradient-5)"></path>
                  <path id="Path_5473" data-name="Path 5473" d="M313.126,1376.506c-1.214.447-2.562.825-3.985,1.207s-2.924.769-4.428,1.279a22.943,22.943,0,0,0-4.438,2,18.174,18.174,0,0,0-2.047,1.413c-.164.127-.32.261-.478.39s-.327.284-.473.419c-.3.288-.623.565-.914.869a25.076,25.076,0,0,0-1.7,1.853c-.528.646-1.02,1.317-1.477,2a24.65,24.65,0,0,0-1.831,3.331,22.344,22.344,0,0,1,5.734-6.414c6.084-4.451,14.277-5.6,20.054-10.453-.259.193-.54.388-.845.579A16.729,16.729,0,0,1,313.126,1376.506Z" fill="url(#linear-gradient-6)"></path>
                </g>
                <g id="Group_2201" data-name="Group 2201">
                  <path id="Path_5474" data-name="Path 5474" d="M202.689,1368.645c10.434.325,16.164-6.508,16.141-16.552-.023-9.5-6.008-15.883-15.455-15.785-9.3.095-14.772,6.2-15.428,15.961C188.361,1361.789,193.051,1368.344,202.689,1368.645Z" fill="#bcdb1b" fill-rule="evenodd"></path>
                  <path id="Path_5475" data-name="Path 5475" d="M254.6,1319.187c-7.505,10.68-14.877,21.453-22.292,32.2H232.3c-2.51,2.965-5.08,5.884-7.522,8.9-20.6,25.437-22.217,25.538-45.775,2.709-4.272-5.747-7.535-12.621-16.848-15.7,5.174,7.428,9.194,13.2,13.215,18.977,9,19.323,19.1,38.22,22.543,64.2,11.189-29.258,25.121-51.916,37.464-75.4q12.466-19.046,24.93-38.086C257.22,1316.863,255.58,1317.789,254.6,1319.187Z" fill="#bcdb1b" fill-rule="evenodd"></path>
                </g>
                <g id="Group_2202" data-name="Group 2202">
                  <path id="Path_5476" data-name="Path 5476" d="M285.519,1404.8a21.376,21.376,0,0,1-5.862,6.92,56.591,56.591,0,0,1-9.607,6.348,58.984,58.984,0,0,1-11.15,4.562,31.557,31.557,0,0,1-10.613,1.422q-4.977-.274-6.717-2.929a9.383,9.383,0,0,1-1.568-5.809,16.071,16.071,0,0,1,.394-2.718,12.205,12.205,0,0,1,1.137-2.921q3.156-6.4,6.315-11.828a118.363,118.363,0,0,0,5.947-11.728c.461-1.026.742-1.7.842-2.022a3.739,3.739,0,0,0,.168-.845c.057-1.048-.52-1.61-1.735-1.678a4.608,4.608,0,0,0-4.659,2.787l-50.4,46.106h0l56.022-97.064,20.152,1.115L253.191,1375a23.623,23.623,0,0,1,5.343-1.958,17.911,17.911,0,0,1,4.772-.4q5.463.3,7.717,2.495a7.473,7.473,0,0,1,2.037,6.08,20.376,20.376,0,0,1-.806,4.7,46.969,46.969,0,0,1-1.933,5.191q-1.253,2.916-3.106,6.645t-4.443,8.828q-.426,1.072-.776,1.906a4.29,4.29,0,0,0-.379,1.319q-.1,1.82,2.086,1.943a10.489,10.489,0,0,0,4.443-1.094,38.34,38.34,0,0,0,5.524-2.985,37.735,37.735,0,0,0,5.086-3.92,21.1,21.1,0,0,1,6.031-3.91Z" fill="url(#linear-gradient-7)"></path>
                </g>
              </g>
            </g>
          </g></svg>